<?xml version="1.0" standalone="no"?>
<!DOCTYPE svg PUBLIC "-//W3C//DTD SVG 20010904//EN"
 "http://www.w3.org/TR/2001/REC-SVG-20010904/DTD/svg10.dtd">
<svg version="1.0" xmlns="http://www.w3.org/2000/svg"
 width="1080.000000pt" height="1080.000000pt" viewBox="0 0 1080.000000 1080.000000"
 preserveAspectRatio="xMidYMid meet">
<metadata>
Created by potrace 1.14, written by Peter Selinger 2001-2017
</metadata>
<g transform="translate(0.000000,1080.000000) scale(0.100000,-0.100000)"
fill="#000000" stroke="none">
<path d="M5246 8522 c-3 -5 -74 -12 -158 -16 -84 -4 -155 -10 -158 -15 -3 -4
-43 -11 -90 -15 -46 -4 -87 -11 -90 -15 -3 -5 -27 -12 -55 -16 -27 -4 -54 -10
-60 -15 -5 -4 -31 -11 -57 -14 -26 -4 -50 -11 -53 -16 -3 -5 -28 -12 -55 -16
-28 -4 -50 -10 -50 -15 0 -5 -10 -9 -23 -9 -12 0 -31 -6 -42 -14 -11 -7 -36
-17 -55 -21 -19 -4 -39 -11 -45 -15 -5 -4 -25 -11 -42 -15 -18 -3 -33 -10 -33
-15 0 -5 -14 -11 -30 -15 -33 -7 -259 -118 -269 -132 -3 -4 -28 -19 -55 -33
-79 -40 -86 -44 -86 -52 0 -4 -15 -15 -32 -23 -51 -24 -77 -40 -102 -64 -12
-11 -27 -21 -32 -21 -5 0 -15 -9 -22 -20 -7 -11 -18 -20 -25 -20 -8 0 -24 -11
-37 -25 -13 -14 -27 -25 -32 -25 -5 0 -28 -20 -50 -45 -23 -25 -46 -45 -52
-45 -14 0 -346 -332 -346 -346 0 -5 -13 -21 -30 -34 -16 -14 -29 -30 -30 -36
0 -5 -13 -23 -30 -39 -16 -16 -30 -35 -30 -42 0 -8 -7 -16 -15 -19 -8 -4 -15
-12 -15 -18 0 -7 -11 -23 -25 -36 -14 -13 -25 -30 -25 -37 0 -8 -6 -16 -14
-19 -8 -3 -18 -19 -21 -36 -4 -16 -13 -32 -21 -35 -8 -3 -14 -9 -14 -15 0 -5
-10 -24 -23 -41 -34 -48 -41 -61 -117 -211 -38 -76 -70 -145 -70 -152 0 -7 -8
-27 -17 -46 -9 -18 -22 -45 -30 -60 -7 -14 -13 -36 -13 -47 0 -12 -4 -21 -10
-21 -5 0 -10 -8 -10 -17 0 -10 -7 -30 -14 -45 -8 -16 -18 -48 -22 -73 -3 -25
-10 -45 -15 -45 -4 0 -11 -21 -15 -47 -3 -27 -10 -53 -15 -59 -5 -6 -12 -39
-15 -73 -4 -33 -10 -61 -15 -61 -4 0 -10 -34 -14 -75 -4 -41 -11 -75 -15 -75
-4 0 -11 -53 -14 -117 -4 -65 -11 -126 -16 -135 -12 -22 -13 -455 -2 -462 5
-3 12 -60 16 -128 4 -67 10 -125 15 -128 4 -3 11 -43 15 -89 4 -47 11 -90 16
-96 5 -6 12 -34 16 -63 3 -28 10 -52 14 -52 5 0 11 -27 15 -60 4 -33 11 -60
15 -60 4 0 11 -20 14 -45 4 -24 11 -47 15 -50 5 -2 12 -21 16 -41 3 -20 10
-44 14 -53 28 -57 41 -89 47 -113 3 -16 10 -28 14 -28 5 0 11 -13 15 -30 8
-38 124 -270 135 -270 4 0 11 -12 15 -27 3 -16 17 -41 29 -58 12 -16 25 -38
29 -47 3 -10 11 -18 16 -18 5 0 12 -12 16 -27 3 -16 24 -49 46 -75 21 -26 39
-50 39 -55 0 -5 20 -31 45 -60 25 -28 45 -55 45 -60 0 -5 16 -23 35 -39 19
-16 35 -33 35 -39 0 -13 342 -355 355 -355 6 0 23 -16 39 -35 16 -19 34 -35
39 -35 5 0 28 -16 51 -36 56 -48 64 -54 72 -54 3 0 23 -14 43 -30 20 -17 41
-34 47 -38 30 -21 52 -33 74 -44 14 -7 39 -22 55 -34 17 -13 42 -26 58 -29 15
-4 27 -11 27 -15 0 -11 198 -110 221 -110 10 0 19 -4 19 -9 0 -5 14 -12 30
-16 17 -4 30 -11 30 -16 0 -5 8 -9 18 -9 9 0 29 -6 43 -14 14 -7 39 -16 55
-20 26 -6 61 -20 116 -47 9 -5 35 -12 58 -15 22 -4 40 -10 40 -14 0 -5 27 -11
60 -15 33 -4 60 -11 60 -15 0 -4 28 -11 63 -15 34 -4 67 -11 72 -15 6 -4 39
-11 75 -15 36 -4 70 -11 75 -15 13 -10 108 -19 212 -19 46 0 84 -5 88 -11 8
-12 331 -14 339 -2 3 5 76 12 162 15 86 4 162 11 168 16 6 4 45 12 86 16 41 3
80 10 85 15 6 4 36 11 67 14 32 4 60 11 63 16 3 5 28 12 55 16 28 4 50 10 50
14 0 4 20 11 45 14 24 4 47 11 50 15 2 5 21 12 41 16 20 3 44 10 53 14 57 28
89 41 114 47 15 3 27 10 27 14 0 5 13 11 30 15 38 8 270 124 270 135 0 4 12
11 28 15 15 3 41 17 59 31 17 13 35 24 38 24 4 0 24 14 45 30 21 17 43 30 49
30 6 0 11 5 11 10 0 6 10 15 23 20 20 9 36 18 71 42 6 4 30 23 52 42 23 20 46
36 51 36 5 0 23 16 39 35 16 19 33 35 39 35 13 0 365 352 365 365 1 6 14 21
30 35 17 13 30 28 30 33 0 5 19 32 43 60 43 53 62 80 74 107 3 8 12 19 20 23
7 4 13 13 13 19 0 5 14 27 30 48 16 21 30 41 30 45 0 3 10 21 23 38 44 63 157
280 157 302 0 14 30 76 41 85 4 3 9 16 13 30 7 22 24 64 47 111 4 9 11 33 14
53 4 20 11 39 16 41 4 3 11 26 15 50 3 25 10 45 14 45 4 0 11 27 15 60 4 33
11 60 15 60 4 0 11 25 15 55 3 30 10 57 15 60 5 3 11 40 15 83 4 42 11 82 16
88 5 6 12 68 15 138 4 70 11 129 16 132 12 8 10 391 -2 399 -5 3 -10 15 -10
26 0 23 -27 25 -57 4 -11 -8 -39 -17 -62 -21 -22 -4 -41 -10 -41 -14 0 -4 -17
-11 -37 -15 -21 -4 -44 -12 -52 -18 -19 -16 -459 -17 -469 -1 -4 6 -28 14 -54
18 -26 4 -50 11 -53 15 -2 5 -20 12 -39 15 -40 8 -156 64 -156 76 0 5 -14 11
-31 15 -17 4 -33 13 -36 21 -3 8 -10 14 -17 14 -15 0 -226 212 -226 228 0 6
-4 12 -9 12 -10 0 -15 9 -61 97 -14 26 -28 50 -32 53 -3 3 -10 18 -13 33 -4
15 -11 27 -15 27 -4 0 -11 20 -14 45 -4 25 -11 45 -16 45 -5 0 -12 21 -16 48
-3 26 -11 53 -18 61 -7 9 -11 81 -11 202 -1 104 -3 190 -6 192 -2 2 -21 11
-41 21 -21 9 -38 21 -38 26 0 6 -6 10 -13 10 -8 0 -22 9 -32 20 -10 11 -23 20
-29 20 -13 0 -116 101 -116 113 0 5 -18 29 -40 55 -43 50 -140 234 -140 264 0
10 -4 18 -9 18 -5 0 -12 25 -16 55 -3 30 -11 57 -16 60 -11 8 -12 325 0 325 4
0 11 27 15 60 4 33 11 60 16 60 5 0 12 20 16 45 3 25 10 45 14 45 5 0 11 14
15 30 4 17 10 30 15 30 5 0 11 14 15 30 4 17 11 30 16 30 5 0 14 10 20 23 19
42 36 67 59 87 21 18 22 23 10 45 -7 13 -26 27 -41 30 -16 4 -49 17 -74 30
-24 13 -60 27 -80 31 -19 3 -37 10 -40 14 -3 5 -23 11 -45 15 -22 4 -42 10
-45 15 -3 5 -23 11 -45 15 -22 4 -42 11 -45 16 -3 4 -28 11 -56 15 -27 4 -52
10 -54 15 -3 4 -31 11 -63 15 -31 3 -61 10 -67 14 -5 4 -39 11 -75 15 -36 4
-70 11 -75 16 -6 4 -79 11 -163 15 -84 4 -155 11 -158 15 -7 12 -311 12 -318
1z"/>
<path d="M7520 7330 c0 -6 -10 -8 -23 -5 -12 3 -36 -1 -52 -9 -17 -9 -33 -16
-36 -16 -7 0 -99 -90 -99 -97 0 -2 -10 -25 -21 -51 -33 -72 -17 -206 29 -235
6 -4 12 -14 12 -21 0 -18 49 -61 95 -82 29 -14 63 -19 120 -19 57 0 91 5 120
19 46 21 95 64 95 83 0 7 4 13 10 13 5 0 17 17 27 38 21 43 26 198 7 210 -6 4
-14 17 -18 29 -9 28 -92 110 -119 119 -12 3 -28 11 -34 16 -7 6 -24 7 -38 4
-14 -4 -25 -2 -25 4 0 5 -11 10 -25 10 -14 0 -25 -5 -25 -10z"/>
<path d="M8280 7122 c-24 -2 -47 -6 -50 -10 -3 -4 -27 -18 -53 -32 -80 -41
-84 -44 -118 -91 -49 -65 -69 -104 -69 -132 0 -14 -4 -29 -10 -32 -5 -3 -10
-35 -10 -70 0 -35 5 -67 10 -70 6 -3 10 -18 10 -32 0 -27 28 -83 48 -96 6 -4
12 -14 12 -21 0 -15 62 -76 77 -76 7 0 16 -6 20 -13 21 -32 66 -42 195 -42 84
0 131 4 136 11 4 6 18 15 31 19 14 4 29 11 35 16 6 5 26 20 44 35 17 14 32 32
32 40 0 8 6 17 14 20 20 8 60 84 58 111 -1 12 3 25 8 28 12 8 13 142 1 149 -4
3 -11 24 -15 46 -3 22 -10 40 -15 40 -5 0 -12 8 -15 18 -26 71 -130 162 -185
162 -11 0 -21 4 -23 8 -4 11 -107 19 -168 14z"/>
</g>
</svg>
